<svg width="24" height="24" viewBox="0 0 24 24" fill="none" xmlns="http://www.w3.org/2000/svg">
<path fill-rule="evenodd" clip-rule="evenodd" d="M12 22C17.5228 22 22 17.5228 22 12C22 6.47715 17.5228 2 12 2C6.47715 2 2 6.47715 2 12C2 17.5228 6.47715 22 12 22ZM12 20C16.4183 20 20 16.4183 20 12C20 7.58172 16.4183 4 12 4C7.58172 4 4 7.58172 4 12C4 16.4183 7.58172 20 12 20Z" fill="white"/>
<path fill-rule="evenodd" clip-rule="evenodd" d="M17 9C17.3905 9.39052 17.3905 10.0237 17 10.4142L11 16.4142C10.803 16.6112 10.5329 16.7171 10.2545 16.7064C9.97618 16.6957 9.71491 16.5694 9.53364 16.3579L6.53364 12.8579C6.17421 12.4386 6.22278 11.8073 6.6421 11.4479C7.06143 11.0884 7.69273 11.137 8.05215 11.5563L10.3494 14.2364L15.5858 9C15.9763 8.60948 16.6095 8.60948 17 9Z" fill="white"/>
</svg>
