<svg width="24" height="24" viewBox="0 0 24 24" fill="none" xmlns="http://www.w3.org/2000/svg">
<path fill-rule="evenodd" clip-rule="evenodd" d="M21 5.125C21 4.7351 20.7981 4.37301 20.4664 4.16802C20.1348 3.96303 19.7206 3.9444 19.3719 4.11877L11 7.5L6.375 7.5C4.51104 7.5 3 9.01105 3 10.875C3 12.739 4.51104 14.25 6.375 14.25H6.68916L8.68273 20.2307C8.83587 20.6902 9.26578 21 9.75001 21H10.875C11.4963 21 12 20.4963 12 19.875L11 15L19.3719 17.6312C19.7206 17.8056 20.1348 17.787 20.4664 17.582C20.7981 17.377 21 17.0149 21 16.625V10.875V5.125Z" fill="#1966CC"/>
</svg>
