<svg width="24" height="24" viewBox="0 0 24 24" fill="none" xmlns="http://www.w3.org/2000/svg">
<path d="M21.0889 4.1228C20.9124 3.70533 20.6187 3.35227 20.2488 3.10181C19.8789 2.85206 19.4285 2.70483 18.9495 2.70483H16.95V2.35988H14.0518C14.065 2.26613 14.0723 2.16942 14.0723 2.07202C14.0723 0.929437 13.1428 0 12.0003 0C10.8577 0 9.92823 0.929437 9.92823 2.07202C9.92823 2.16942 9.93555 2.26613 9.94877 2.35988H7.05058V2.70483H5.05103C4.73167 2.70483 4.42483 2.77003 4.14723 2.88792C3.72977 3.06445 3.376 3.35812 3.1255 3.72802C2.87575 4.09861 2.72852 4.54833 2.72852 5.02734V21.6782C2.72852 21.9961 2.79372 22.3037 2.91161 22.582C3.08814 22.9995 3.38181 23.3526 3.7517 23.603C4.1223 23.8535 4.57202 24 5.05103 24H18.9495C19.2681 24 19.5757 23.9355 19.8533 23.8169C20.2715 23.6411 20.6245 23.3467 20.875 22.9768C21.1248 22.6069 21.272 22.1565 21.272 21.6782V5.02734C21.272 4.70803 21.2075 4.40114 21.0889 4.1228ZM12.0003 1.30298C12.4243 1.30298 12.7693 1.64794 12.7693 2.07202C12.7693 2.17383 12.7488 2.27048 12.7129 2.35988H11.2883C11.2517 2.27053 11.2312 2.17383 11.2312 2.07202C11.2312 1.64794 11.5769 1.30298 12.0003 1.30298ZM19.8906 21.6782C19.8906 21.8101 19.8642 21.9316 19.8167 22.0437C19.7463 22.2114 19.6262 22.3565 19.4754 22.459C19.3245 22.56 19.1472 22.6186 18.9495 22.6186H5.05103C4.91917 22.6186 4.79688 22.5922 4.6848 22.5454C4.51633 22.4743 4.37205 22.3535 4.27023 22.2033C4.16917 22.0524 4.11058 21.8752 4.10983 21.6782V5.02734C4.10983 4.89548 4.13622 4.77319 4.1838 4.66111C4.25486 4.49264 4.37495 4.34761 4.52509 4.24655C4.67598 4.14548 4.85322 4.08689 5.05098 4.08614H7.05048V4.374C7.05048 4.91452 7.48848 5.35252 8.02975 5.35252H15.9714C16.5119 5.35252 16.9499 4.91452 16.9499 4.374V4.08614H18.9494C19.0813 4.08614 19.2036 4.11253 19.3157 4.16011C19.4834 4.23042 19.6284 4.35056 19.7302 4.50141C19.832 4.65225 19.8906 4.82953 19.8906 5.0273V21.6782Z" fill="#1966CC"/>
<path d="M8.80176 8H7.31934V9.48242H8.80176V8Z" fill="#1966CC"/>
<path d="M16.6819 8H10.5713V9.48242H16.6819V8Z" fill="#1966CC"/>
<path d="M8.80176 12.3809H7.31934V13.8633H8.80176V12.3809Z" fill="#1966CC"/>
<path d="M16.6819 12.3809H10.5713V13.8633H16.6819V12.3809Z" fill="#1966CC"/>
<path d="M8.80176 16.7627H7.31934V18.2451H8.80176V16.7627Z" fill="#1966CC"/>
<path d="M16.6819 16.7627H10.5713V18.2451H16.6819V16.7627Z" fill="#1966CC"/>
</svg>
